<svg width="161" height="114" viewBox="0 0 161 114" fill="none" xmlns="http://www.w3.org/2000/svg">
<path d="M18.504 89.364L15.21 102H11.484L9.468 93.684L7.38 102H3.654L0.45 89.364H3.744L5.562 98.562L7.812 89.364H11.196L13.356 98.562L15.192 89.364H18.504ZM23.1256 91.83V94.386H27.2476V96.762H23.1256V99.534H27.7876V102H20.0476V89.364H27.7876V91.83H23.1256ZM32.8639 99.624H36.8959V102H29.7859V89.364H32.8639V99.624ZM37.842 95.664C37.842 94.416 38.112 93.306 38.652 92.334C39.192 91.35 39.942 90.588 40.902 90.048C41.874 89.496 42.972 89.22 44.196 89.22C45.696 89.22 46.98 89.616 48.048 90.408C49.116 91.2 49.83 92.28 50.19 93.648H46.806C46.554 93.12 46.194 92.718 45.726 92.442C45.27 92.166 44.748 92.028 44.16 92.028C43.212 92.028 42.444 92.358 41.856 93.018C41.268 93.678 40.974 94.56 40.974 95.664C40.974 96.768 41.268 97.65 41.856 98.31C42.444 98.97 43.212 99.3 44.16 99.3C44.748 99.3 45.27 99.162 45.726 98.886C46.194 98.61 46.554 98.208 46.806 97.68H50.19C49.83 99.048 49.116 100.128 48.048 100.92C46.98 101.7 45.696 102.09 44.196 102.09C42.972 102.09 41.874 101.82 40.902 101.28C39.942 100.728 39.192 99.966 38.652 98.994C38.112 98.022 37.842 96.912 37.842 95.664ZM58.051 102.126C56.863 102.126 55.771 101.85 54.775 101.298C53.791 100.746 53.005 99.978 52.417 98.994C51.841 97.998 51.553 96.882 51.553 95.646C51.553 94.41 51.841 93.3 52.417 92.316C53.005 91.332 53.791 90.564 54.775 90.012C55.771 89.46 56.863 89.184 58.051 89.184C59.239 89.184 60.325 89.46 61.309 90.012C62.305 90.564 63.085 91.332 63.649 92.316C64.225 93.3 64.513 94.41 64.513 95.646C64.513 96.882 64.225 97.998 63.649 98.994C63.073 99.978 62.293 100.746 61.309 101.298C60.325 101.85 59.239 102.126 58.051 102.126ZM58.051 99.318C59.059 99.318 59.863 98.982 60.463 98.31C61.075 97.638 61.381 96.75 61.381 95.646C61.381 94.53 61.075 93.642 60.463 92.982C59.863 92.31 59.059 91.974 58.051 91.974C57.031 91.974 56.215 92.304 55.603 92.964C55.003 93.624 54.703 94.518 54.703 95.646C54.703 96.762 55.003 97.656 55.603 98.328C56.215 98.988 57.031 99.318 58.051 99.318ZM80.5354 89.364V102H77.4574V94.422L74.6314 102H72.1474L69.3034 94.404V102H66.2254V89.364H69.8614L73.4074 98.112L76.9174 89.364H80.5354ZM85.8268 91.83V94.386H89.9488V96.762H85.8268V99.534H90.4888V102H82.7488V89.364H90.4888V91.83H85.8268ZM105.392 89.364V91.83H102.044V102H98.9655V91.83H95.6175V89.364H105.392ZM112.912 102.126C111.724 102.126 110.632 101.85 109.636 101.298C108.652 100.746 107.866 99.978 107.278 98.994C106.702 97.998 106.414 96.882 106.414 95.646C106.414 94.41 106.702 93.3 107.278 92.316C107.866 91.332 108.652 90.564 109.636 90.012C110.632 89.46 111.724 89.184 112.912 89.184C114.1 89.184 115.186 89.46 116.17 90.012C117.166 90.564 117.946 91.332 118.51 92.316C119.086 93.3 119.374 94.41 119.374 95.646C119.374 96.882 119.086 97.998 118.51 98.994C117.934 99.978 117.154 100.746 116.17 101.298C115.186 101.85 114.1 102.126 112.912 102.126ZM112.912 99.318C113.92 99.318 114.724 98.982 115.324 98.31C115.936 97.638 116.242 96.75 116.242 95.646C116.242 94.53 115.936 93.642 115.324 92.982C114.724 92.31 113.92 91.974 112.912 91.974C111.892 91.974 111.076 92.304 110.464 92.964C109.864 93.624 109.564 94.518 109.564 95.646C109.564 96.762 109.864 97.656 110.464 98.328C111.076 98.988 111.892 99.318 112.912 99.318ZM132.551 95.52C133.283 95.676 133.871 96.042 134.315 96.618C134.759 97.182 134.981 97.83 134.981 98.562C134.981 99.618 134.609 100.458 133.865 101.082C133.133 101.694 132.107 102 130.787 102H124.901V89.364H130.589C131.873 89.364 132.875 89.658 133.595 90.246C134.327 90.834 134.693 91.632 134.693 92.64C134.693 93.384 134.495 94.002 134.099 94.494C133.715 94.986 133.199 95.328 132.551 95.52ZM127.979 94.476H129.995C130.499 94.476 130.883 94.368 131.147 94.152C131.423 93.924 131.561 93.594 131.561 93.162C131.561 92.73 131.423 92.4 131.147 92.172C130.883 91.944 130.499 91.83 129.995 91.83H127.979V94.476ZM130.247 99.516C130.763 99.516 131.159 99.402 131.435 99.174C131.723 98.934 131.867 98.592 131.867 98.148C131.867 97.704 131.717 97.356 131.417 97.104C131.129 96.852 130.727 96.726 130.211 96.726H127.979V99.516H130.247ZM141.338 102.126C140.414 102.126 139.586 101.976 138.854 101.676C138.122 101.376 137.534 100.932 137.09 100.344C136.658 99.756 136.43 99.048 136.406 98.22H139.682C139.73 98.688 139.892 99.048 140.168 99.3C140.444 99.54 140.804 99.66 141.248 99.66C141.704 99.66 142.064 99.558 142.328 99.354C142.592 99.138 142.724 98.844 142.724 98.472C142.724 98.16 142.616 97.902 142.4 97.698C142.196 97.494 141.938 97.326 141.626 97.194C141.326 97.062 140.894 96.912 140.33 96.744C139.514 96.492 138.848 96.24 138.332 95.988C137.816 95.736 137.372 95.364 137 94.872C136.628 94.38 136.442 93.738 136.442 92.946C136.442 91.77 136.868 90.852 137.72 90.192C138.572 89.52 139.682 89.184 141.05 89.184C142.442 89.184 143.564 89.52 144.416 90.192C145.268 90.852 145.724 91.776 145.784 92.964H142.454C142.43 92.556 142.28 92.238 142.004 92.01C141.728 91.77 141.374 91.65 140.942 91.65C140.57 91.65 140.27 91.752 140.042 91.956C139.814 92.148 139.7 92.43 139.7 92.802C139.7 93.21 139.892 93.528 140.276 93.756C140.66 93.984 141.26 94.23 142.076 94.494C142.892 94.77 143.552 95.034 144.056 95.286C144.572 95.538 145.016 95.904 145.388 96.384C145.76 96.864 145.946 97.482 145.946 98.238C145.946 98.958 145.76 99.612 145.388 100.2C145.028 100.788 144.5 101.256 143.804 101.604C143.108 101.952 142.286 102.126 141.338 102.126ZM147.319 95.664C147.319 94.416 147.589 93.306 148.129 92.334C148.669 91.35 149.419 90.588 150.379 90.048C151.351 89.496 152.449 89.22 153.673 89.22C155.173 89.22 156.457 89.616 157.525 90.408C158.593 91.2 159.307 92.28 159.667 93.648H156.283C156.031 93.12 155.671 92.718 155.203 92.442C154.747 92.166 154.225 92.028 153.637 92.028C152.689 92.028 151.921 92.358 151.333 93.018C150.745 93.678 150.451 94.56 150.451 95.664C150.451 96.768 150.745 97.65 151.333 98.31C151.921 98.97 152.689 99.3 153.637 99.3C154.225 99.3 154.747 99.162 155.203 98.886C155.671 98.61 156.031 98.208 156.283 97.68H159.667C159.307 99.048 158.593 100.128 157.525 100.92C156.457 101.7 155.173 102.09 153.673 102.09C152.449 102.09 151.351 101.82 150.379 101.28C149.419 100.728 148.669 99.966 148.129 98.994C147.589 98.022 147.319 96.912 147.319 95.664Z" fill="#140C47"/>
<path fill-rule="evenodd" clip-rule="evenodd" d="M146.838 13.1677L147 12.9642L146.923 12.488L146.56 12.2296L146.503 12.2062L146.422 12.1935H146.324L146.267 12.1787L145.994 11.9478L145.832 11.6976L145.972 11.4835L146.112 11.3864L146.196 11.2633L146.08 10.9327L146.27 10.6128L146.329 10.5045L146.402 10.4155L146.548 10.2883L146.752 10.0808L146.746 10.0045L146.678 9.88805L146.702 9.73954L146.737 9.66528L146.697 9.29452L146.68 9.13787L146.557 8.87697L146.437 8.65217L146.213 8.0739L146.147 7.81299L146.097 7.54649L146.063 7.28965L146.08 6.95703L146.095 6.90007L146.348 6.52269L146.122 6.04156L146.093 5.98206L146.073 5.89763L146.076 5.41244L146.053 5.08592L146.031 4.96488L146.07 4.63887L146.104 4.33982H144.47L143.722 4.03466L142.778 3.8653H141.086L140.652 3.42435L139.983 3.88208L138.723 4.33982H137.636L136.838 3.9543L135.392 4.50104H134.92L134.713 4.41204L134.491 4.42475L134.255 4.50104L134.034 4.69176H133.827L133.68 4.60276L133.458 4.53918H133.237L132.971 4.57733L132.815 4.58547L132.735 4.59004H132.425L132.011 4.48832L130.255 4.13231L129.576 3.8653L129.162 3.75087L128.528 3.48386L128.025 3.24227L127.554 2.8354L127.081 2.34817L126.894 1.924V1.4327L127.228 0.949541V0.610311L127.464 0L126.688 0.143932L126.303 0.321939L126.018 0.423657L125.831 0.534022L125.654 0.584881L125.28 0.542668L124.906 0.457733L124.453 0.372798L124.158 0.356014L123.725 0.305155L123.292 0.254296L122.78 0.237512H122.308L121.934 0.372798L121.501 0.474516L120.95 0.627094L120.281 0.593527L119.722 0.921569L119.124 1.18655L118.78 1.70378L117.776 1.62343L117.441 1.55121L117.151 1.38184L116.954 1.28013L116.812 1.23334L116.556 1.26741L114.912 1.924L114.828 1.97486L114.74 2.03437L114.209 2.61925L114.081 2.76318L113.933 2.91576L113.835 2.98391L113.687 3.09377L113.539 3.12784L113.362 3.1787L113.096 3.32263L112.89 3.41621L112.575 3.50064L112.014 3.63643L111.65 3.74629L111.276 3.85665L110.922 3.91616L110.567 4.00059L110.341 4.04331L110.144 4.08552L109.888 4.16181L109.623 4.22131L109.396 4.28031L109.141 4.33982H108.826L108.383 4.31439L108.029 4.26353L107.792 4.2976L107.537 4.36525L107.29 4.43289H107.113L106.877 4.45018L106.7 4.51782L106.503 4.60276L106.267 4.61954L106.05 4.64497L105.863 4.69176L105.607 4.77212L105.302 4.89062L105.125 4.9842L104.81 5.09406H104.544L104.308 5.14492H104.141L103.915 5.21307L103.531 5.34835L103.019 5.53094L101.336 6.05225L100.318 6.24297L99.2991 6.40826L98.8118 6.49726L98.2213 6.80242L96.6568 7.34915L95.5494 7.59074L95.0038 7.76874L94.6935 7.87046H94.31L93.8817 7.93404L93.5714 8.02304L93.3734 8.12974C93.1287 7.79377 92.8194 7.5081 92.464 7.28775L92.3785 7.23008L89.1864 5.3561C85.6524 3.28031 79.8382 3.28031 76.2757 5.3561L59.3747 15.245C55.8407 17.3208 52.9336 22.3949 52.9336 26.5465V29.9459L52.6525 29.8711L52.0224 30.0237L50.8414 30.0069L49.6804 30.0237L48.8338 30.0069L48.2828 30.0237L47.3383 30.1254L46.8463 30.1595L46.4917 30.0578L45.4487 29.8035L42.0242 29.6341L39.6233 29.3625L38.4817 29.3458L37.4776 29.329H36.6706L32.2816 29.0065L31.0415 28.1419L31.5731 29.6677L30.4905 31.3633L30.4315 32.6603L31.2091 32.2447L32.1536 31.8038L33.1476 31.6176L33.9742 31.3038L34.8697 31.0836L35.3127 30.9056L35.7853 30.897L35.8738 32.4141L35.8543 34.2623L35.5393 35.0674L35.4213 35.4148L35.3617 35.6355L35.3027 36.076L35.3228 36.3475L35.4112 36.5846L35.5192 36.7966L35.6378 36.9746L35.8342 37.0764L36.0508 37.1994L36.2378 37.2879L36.2968 37.4832L36.459 37.8454L36.282 38.3031L36.164 38.7293L35.681 38.8722L34.6067 39.2283L34.4409 39.2441H34.0863L33.9572 39.295L33.8469 39.3336L33.625 39.3877L32.71 39.346L32.588 39.3623L32.4888 39.3877L32.3668 39.4035L32.1161 39.4864L31.9202 39.524L31.7285 39.5403H31.5769L31.4111 39.5605L31.1946 39.5986L30.9634 39.6622L30.663 39.7298L30.4861 39.7593H29.1228L28.8721 39.7339L28.6261 39.8443L28.4491 39.9714L28.252 40.0645L27.6568 40.1367L27.1004 40.1916L26.6332 40.2552L26.284 40.2766H26.0675L25.2162 40.3147L24.3207 40.3824L24.6653 40.6707L24.7638 41.5862L24.3207 41.7215L23.8581 41.8827L23.4352 41.9676L23.1396 42.0439L22.3031 42.4335L21.5355 42.7895L21.25 42.9421L21.073 43.0016L20.571 43.2727L19.7445 43.5611L18.6224 43.9511L17.2255 44.2985L16.4969 43.8749L16.3394 43.7731L16.1818 43.6287L15.9948 43.4171L15.8373 43.1374L15.3654 42.0775L14.8439 41.162L14.7259 41.0349L14.5483 40.9164L14.0958 40.6367L13.69 40.3885L13.4905 40.2552L11.9185 40.2934L11.3132 40.3951L11.2029 40.4586L11.3946 41.2276L11.4978 41.5013L13.7047 41.5074L13.7707 41.781L13.7601 41.9275L13.7081 42.0607L13.6344 42.2194L13.5677 42.407L13.5052 42.5754L13.4721 42.7248L13.4679 42.8428L13.4827 43.0462L13.4791 43.386L13.5086 43.5163L13.6414 43.7868L13.734 44.0472L13.8041 44.2984L13.9073 44.5496L14.0029 44.8894L14.0365 44.9656L14.1656 45.1151L14.2464 45.2264L14.3538 45.3566L14.5307 45.5728L14.6156 45.754L14.634 45.821L14.4422 46.11L14.2723 46.3073L14.1319 46.4853L14.0511 46.6888L13.9184 46.7778L13.7555 46.8413L13.6748 46.8861L13.539 47.0575L13.431 47.1678L13.2835 47.3031L13.0912 47.4221L12.8358 47.5701L12.6488 47.6846L12.5355 47.7568L12.447 47.829L12.2995 47.9516L12.142 48.096L11.9403 48.3076L11.7533 48.4648L11.6052 48.6509L11.4135 48.8289L11.2023 49.0156L11.0743 49.1427L10.9215 49.249L10.5574 49.4351L10.5131 49.4987L10.4736 49.5923L10.4046 49.6727L10.2176 49.8125L10.0849 49.9056L9.90317 49.9737L9.65717 50.0582L9.40586 50.3084L9 50.6873L9.72796 50.7173L9.91792 50.7661L10.2276 50.8043L10.3999 50.8231H10.5698L10.6925 50.8551L10.722 50.8907L10.774 50.9609L10.9758 51.7747L11.069 52.4191L11.4383 52.7242L11.6253 52.9277L11.7285 53.0884L12.004 53.4444L12.4175 54.1269L12.565 54.5124L12.87 54.8684L13.165 55.2036L13.4458 55.5255L13.8688 56.3942L14.4198 56.9964L14.5726 57.4114L14.821 58.0009L15.0746 58.4332L14.9047 58.6808L14.821 58.8227L14.772 58.9245L14.7006 59.076L14.634 59.3018L14.4865 59.9406L14.9331 60.2584L15.2799 60.0804L15.527 59.9823L15.7081 59.9121L16.1505 59.877L16.4713 59.8277L16.5806 59.7849L16.7539 59.7071L17.2152 59.4416L17.2642 59.252L17.3385 58.9555L17.335 58.7171L17.3426 58.5676L17.2441 58.2508L17.2589 58.1791L17.3279 58.0774L17.3574 57.9543L17.4164 57.8058L17.5149 57.6023L17.6081 57.3399L17.7951 56.992L17.9184 56.7886L18.2824 56.6152L18.4051 56.5811L18.5626 56.5918L18.7077 56.6279L18.8039 56.636L19.0034 56.6192L19.3891 57.0429L19.4907 57.2209L19.5762 57.3714L19.621 57.4879V57.5667L19.6134 57.6298L19.6895 57.7997L20.0953 57.7402L20.4817 57.7L21.028 57.6405L21.3454 57.5983L21.461 57.5474L21.6108 57.556L21.7637 57.611L22.0959 57.6552L22.2681 57.6893L22.3761 57.7361L22.4823 57.8124L22.5265 57.88L22.5165 57.9329L22.4917 57.9838L22.2605 58.201L22.1341 58.3281L21.7854 58.5839L21.3206 59.1515L21.4869 59.4196L21.4055 59.5976L21.3908 59.7314L19.9737 59.7441L19.457 59.9857L18.7225 60.5482L18.2235 60.9256L18.1544 61.2135L18.1102 61.4215L18.0907 61.5186V61.6163L18.1444 61.7689L18.2235 61.896L18.3414 62.0613L18.4695 62.1885L18.9025 62.5867L19.067 62.8201L19.1703 62.9981L19.2712 63.1019L19.3627 63.2077L19.7757 63.7102L19.9922 64.026L20.1078 64.2228L20.3367 64.5788L20.4841 64.9328L20.3538 65.1088L19.7084 65.7806L19.6749 65.8437L19.6489 65.9235L19.6383 66.0252L19.6601 66.253L19.7244 66.4712L19.7982 66.5943L20.0884 66.6746L20.4329 66.6894L20.7574 66.7443L20.8878 66.7931H21.0329L21.6629 67.1303L21.6731 67.3419L21.6381 67.4162L21.5574 67.4904L20.7721 67.9522L20.5338 68.1241L20.4571 68.2085L20.2459 68.4567L19.7634 69.5334L19.6554 69.8554L19.5864 70.0334L19.5569 70.2114L18.8584 70.6859L19.2519 71.525L19.3304 71.6268L19.5079 71.7712L19.7144 71.8475L19.9209 71.8897L20.3492 72.0677L20.5043 72.1293L20.6665 72.1802L20.8388 72.1989L21.0134 72.2142L21.2028 72.2498L21.5644 72.3515L21.8648 72.4659L22.1108 72.5575L22.3025 72.6292L22.4647 72.6465H22.6276L22.6989 72.6338L22.8022 72.6379L22.9597 72.6847L23.2228 72.7101L23.2694 72.7329L23.7319 72.3561L23.7814 72.2905L23.8452 72.1821L24.0322 71.9701L24.3597 71.9319L24.5708 71.8983L24.7726 71.8683L24.9502 71.8475L25.287 71.7966L25.5525 71.7605L25.7324 71.6903L25.9513 71.6313L26.1802 71.5591L26.3672 71.4955L26.4504 71.434L26.7902 71.2453L27.078 71.0699L27.3364 70.9193L27.7152 70.7494L27.9465 70.6945L28.2562 70.6477L28.5417 70.6096L28.9057 70.6436L29.2207 70.6859L30.082 70.7942L30.5322 71.163L30.8007 71.2707L31.3617 70.9488L31.6761 70.8431H31.7351L31.7894 70.8725L32.0259 71.0505L32.3846 71.3791L32.6872 71.4065L32.9952 71.7585L33.01 71.8261L33.2141 71.8221L33.4135 71.8028L34.0323 71.8053L34.221 71.8038L34.621 71.8706L34.8776 71.9503L35.1838 71.9833L35.697 72.3871L35.8297 72.4125L35.9312 72.4139L36.0215 72.4282L36.0899 72.4729L37.1323 71.8815L37.4997 71.8529L37.6767 71.861L37.8631 71.8702L38.0454 71.8514L38.1989 71.8102L38.3246 71.7908L38.4331 71.796L38.5275 71.8148L38.6307 71.8468L38.6992 71.8956L38.793 71.9262L38.9428 71.9323L39.1677 71.9211L39.3192 71.9023L39.5516 71.9135L39.6659 71.9231L39.7451 71.9373L39.8707 71.9342L39.9333 71.9448L40.0442 72.0084L40.3409 72.1833L40.463 72.2708L40.5645 72.398L40.6565 72.5251L40.7581 72.6492L40.8613 72.7809L40.9592 72.8618L41.0684 72.9095L41.2524 73L41.7267 72.5331L41.7804 72.4644L41.8152 72.3916L41.8229 72.3274L41.8247 72.2607L41.8558 72.1686L41.8965 72.0684L41.9591 71.9779L42.0016 71.8985L42.0388 71.8043L42.063 71.5642L42.1031 71.4848L42.1993 71.3846L42.3025 71.2289L42.397 71.0875L42.5185 70.9395L42.6111 70.819L42.7126 70.7031L42.7803 70.6314L42.8766 70.5109L42.9503 70.4438L43.0076 70.3202L43.0447 70.1895L43.1203 70.0294L43.1533 69.9008L43.1515 69.8066L43.4377 69.5411L43.6 69.5156L43.7639 69.4841L43.8896 69.4648L44.0411 69.4319L44.1461 69.4431L44.2346 69.4873L44.3768 69.5223L44.7992 69.5747L44.9778 69.6271L45.12 69.681L45.2916 69.6683L45.3713 69.6795L45.5482 69.7512L45.7017 69.8229L45.799 69.8275L45.9576 69.7939L46.2343 69.7483L46.5352 69.7228L47 69.5194L47.2608 69.5921L47.3434 69.6338L47.4525 69.6572L47.5575 69.643L47.6423 69.6176L47.9172 69.5779L48.3178 69.5286L48.5927 69.4777L48.7992 69.4334L48.9431 69.3826L49.0941 69.3414L49.3272 69.298L49.5058 69.2712L49.8068 69.2458L50.1147 68.9152L50.1849 68.8328L50.3471 68.6944L50.3843 68.5973L50.4249 68.4732L50.4598 68.3654L50.5371 68.0918L50.5778 67.987L50.6958 67.6659L51.2609 67.372L51.6497 67.3833L51.829 67.4072L51.9121 67.4164L52.0927 67.453L52.1977 67.5135L52.4986 67.604L52.6537 67.5054L52.8307 67.3941L52.8861 67.329L52.9233 67.2547L53.154 67.0401L53.2347 66.8733L53.2849 66.6603L52.9469 66.341L52.6998 65.9595L52.7075 65.9051L52.7718 65.6305L53.3677 65.33L53.8308 65.4032L54.2278 65.2475L54.3812 64.9454L54.6225 64.7862L54.8792 64.6611L55.1115 64.594L55.2242 64.5574L55.298 64.4989L55.3292 64.4114L55.3627 64.2797L55.3811 64.1444L55.3959 63.9522L55.3552 63.7346L55.2927 63.6375L55.259 63.3084L55.6614 62.9792L55.7262 62.7585L55.8348 62.5357L55.8295 61.9859L55.8537 61.8653L55.9197 61.7062L55.9846 61.5504L56.6577 61.0718L56.8276 61.0368L56.9179 61.0165L57.5473 61.018L57.6818 61.0419L57.8423 61.0913L58.0971 61.1609L58.32 61.2087L58.835 61.2437L59.2114 61.2625L59.3884 61.2804L59.6968 61.3358L60.2537 61.698L60.3422 61.7667L60.433 61.8684L60.8389 62.3149L61.2283 62.323L61.3852 62.3118L61.5604 62.3291L61.6896 62.3322L61.7851 62.3261L62.2116 62.1958L62.3869 62.2161L62.6229 62.2574L62.7962 62.2991L62.9921 62.3357L63.2468 62.3388L63.4326 62.3689L63.7483 62.4166L64.1636 62.4996L64.4461 62.5341L64.7116 62.5931L64.8997 62.6359L65.3369 62.6628L65.7115 62.7472L66.2484 62.7426L66.6583 62.7137L66.837 62.6867L67.0288 62.6755L67.1839 62.6613L67.306 62.6374L67.378 62.6216L67.7154 62.469L67.7986 62.4563L68.116 62.4467L68.424 62.4645L68.6771 62.4945L69.1915 62.5596L69.5123 62.612L69.7082 62.6282L70.1565 62.9761L70.0922 63.415L70.0775 63.8279L70.055 64.2409L70.3246 64.2984L70.5459 64.3462L70.6526 64.3843L70.8155 64.4698L71.1364 64.4255H71.2655L71.3912 64.4414L71.4651 64.4465C72.0111 65.1228 72.8349 65.5542 73.7676 65.5542C74.5958 65.5542 75.3453 65.2141 75.8871 64.6643L76.3027 64.7973L76.3728 64.8005L76.5315 64.8421L76.7416 64.9311H77.1032L77.2695 64.9439L77.4241 64.9662L77.775 64.9881L78.1178 64.9977L78.2694 65.0135L78.6127 65.0771L78.8598 65.1346L79.0036 65.1788H79.5204L79.7242 65.1546V65.9867C79.7242 67.6588 81.0637 69.0139 82.6883 69.0139C84.3413 69.0139 85.6523 67.6588 85.6808 65.9867V64.5927L85.7314 64.5846L85.9526 64.5114L86.3549 64.3811L86.6168 64.3363L86.838 64.3078L87.1258 64.2792L87.3954 64.2697L87.5653 64.2442C87.5653 64.2442 87.993 64.2376 88.0041 64.2376L88.9417 64.2407L89.1914 64.2438C89.7228 65.0355 90.6147 65.5542 91.6375 65.5542C92.529 65.5542 93.3292 65.1602 93.8774 64.5348L94.0933 64.5648L94.3846 64.6189L94.4878 64.6697L94.7722 64.7969L94.9049 64.8544L95.0782 64.8702L95.3031 64.8508L95.5507 64.8641L95.8937 64.9017L96.0305 64.8956L96.1189 64.8733L96.2369 64.8164L96.3478 64.7462L96.4729 64.6826L96.7833 64.5335L96.9271 64.444L97.0193 64.3422L97.1078 64.2187L97.1449 64.1357L97.2003 63.9993L97.2186 63.8814L97.2494 63.7344L97.2741 63.628L97.2788 63.5096L97.2694 62.9374L97.3083 62.8397L97.3673 62.7553L97.4511 62.6028L97.6505 62.2569L97.7685 62.0982L97.9384 61.9141L97.9253 61.5403L97.6817 61.3668L97.5714 61.2926L97.4706 61.1486L97.2695 60.9071L97.2299 60.7082L97.1957 60.5638L97.1461 60.4112L97.0576 60.2378L96.9598 60.0552L96.8169 59.7333L96.7137 59.483L96.6741 59.2842L96.1338 58.6143L96.0057 58.4658L95.8925 58.2161L95.8093 58.0508L95.7302 57.8555L95.6913 57.6353L95.686 57.377L95.6518 57.0926L95.6223 56.9319L95.5734 56.7834L95.4648 56.6222L95.3227 56.4823L95.2047 56.347L95.0572 56.258L94.9097 56.1858L94.8306 56.1436V55.7367L94.8655 55.635L94.9191 55.5501L94.9634 55.4651L94.9882 55.372V55.2744L94.9439 55.1727L94.8601 55.0628L94.6016 54.7037V52.7989L94.6243 52.7996L94.7717 52.7782L94.9688 52.7615L95.1015 52.8077L95.2342 52.8673L95.3617 52.9268L95.5386 52.9904L95.7156 53.0326L95.9073 53.0667L96.1581 53.1048L96.3598 53.1216L96.5321 53.151H96.6353L96.7728 53.1216L96.9155 53.0794L97.0235 53.0239L97.1515 52.969L97.2937 52.7188L97.3922 52.613L97.5249 52.5281L97.6234 52.4772L97.7746 52.4606C97.6761 52.7611 97.6226 53.0825 97.6226 53.4166V57.3087C97.6226 58.952 98.9336 60.307 100.587 60.307C102.24 60.307 103.579 58.9808 103.579 57.3087V53.4166C103.579 52.9303 103.466 52.4708 103.265 52.0636L103.35 51.9859L103.7 52.0575L104.048 52.1171L104.869 51.7316L104.796 51.4941L104.781 51.3669L104.806 51.0491V50.8711L104.781 50.5023L105.287 50.4728H105.381L105.494 50.5237L105.592 50.6422L105.813 50.9433L105.862 51.1548L105.906 51.3455L105.946 51.5027L106.02 51.8541L106.064 52.0662V52.2101L106.059 52.3754L106.054 52.5199L106.02 52.6002L105.986 52.6765L105.774 52.9349L105.656 53.1047L105.553 53.2955L105.459 53.4775L105.4 53.6515L105.897 53.7786L106.113 53.8549L106.33 53.8971L106.555 53.948L106.826 54.0456L107.426 54.3335L107.499 54.3762L107.558 54.4225L107.637 54.5161L107.731 54.6219L107.809 54.7531L107.849 54.8635L108.34 55.249L108.655 55.1559L108.959 54.8721L109.166 54.8507L109.289 54.8294L109.53 54.8421L109.756 54.8467H109.928L110.159 54.8294H110.228L110.779 55.0755L110.936 55.0455L111.182 55.0033L111.407 54.9438L111.801 54.8889L112.15 54.8848L112.322 54.5542L112.469 54.2277L112.273 53.1175L111.904 52.7742L111.826 52.6979L111.757 52.5407L111.693 52.4731L111.575 52.35L111.437 52.2696L111.152 52.0662L111.093 51.9772L111.049 51.7738L110.96 51.5322L110.931 51.3455L110.901 51.1929L110.887 51.0831L110.832 50.9768L110.651 50.7693L110.621 50.2648L110.636 50.159L110.69 49.926L110.832 49.4724L110.813 49.125L110.793 48.9851L110.803 48.8453L110.867 48.5355L110.842 48.417L110.769 48.235L110.724 48.0697L110.606 47.9425L110.356 47.7264L110.194 47.7177L110.051 47.6628L109.761 47.4848L109.633 47.3617L109.549 47.1964L109.525 47.1074L109.535 46.8999L109.869 46.8745L110.041 46.8699L110.204 46.8913L110.621 47.1369L110.769 47.1456H111.034L111.024 47.0144L111 46.9126L110.705 46.6283L110.7 46.3318L110.685 46.1452L110.577 45.9122L110.621 45.4799L111.034 45.4291L111.501 45.4077L112.071 45.3696L112.764 45.3823L113.074 45.1198L113.192 45.0563L113.443 45.0135L113.59 45.0222L113.664 45.0517L113.787 45.0985L113.895 45.1112L114.161 45.4504L114.308 45.5649L114.515 45.6834L114.633 45.7597L115.183 46.2769L115.345 46.3827L115.572 46.5139L115.758 46.6538L115.882 46.7133H116.009L116.407 46.7428L116.693 46.7728L116.894 46.8277L117.061 46.9126L117.307 47.0311L117.46 47.1074L117.858 47.1201L117.936 47.1624L118.103 47.2641L118.251 47.3149L118.344 47.4848L118.408 47.6796L118.526 47.8108L119.17 47.7854L119.701 47.1669L119.908 46.9508L120.148 46.9421L120.374 47.0947L120.522 47.2686L120.694 47.5016L120.861 47.7518L121.132 47.6287L121.456 47.5484L121.5 47.4467L121.549 47.3149L121.589 47.171L121.623 47.0652L121.564 46.9716L121.476 46.8953L121.372 46.8023L121.23 46.7046L121.107 46.6283L120.94 46.5648L120.778 46.4803L120.635 46.4549L120.571 46.4376L120.532 46.1411L120.478 45.9417L120.37 45.7047L120.173 45.247L119.696 45.2088L119.332 45.1707L119.086 45.158H118.914L118.728 45.128L118.418 45.1026L118.413 44.7425L118.438 44.3229L118.364 44.1235L118.344 43.9669L118.3 43.7166L118.128 43.5941L117.98 43.4669L117.872 43.2889L117.813 43.119L117.681 42.7757L117.592 42.6277L117.533 42.585L117.469 42.6064L117.327 42.6486L117.15 42.6867H117.017L116.919 42.6445L116.791 42.5642L116.609 42.4538L115.95 41.8649L115.454 41.2713L115.33 41.0084L115.212 40.6737L115.115 40.3345L115.129 40.0975L115.109 39.6479L115.434 39.3555L116.191 38.5671V38.025L115.955 37.6858L115.862 37.5952L115.818 37.4884L115.822 37.3903L115.844 37.3013L115.893 37.2136L115.96 37.1323L116.047 36.8912L116.14 36.7545L116.342 36.5414L116.625 36.0012L116.836 35.6672L116.915 35.4368L116.928 35.1876L117.002 34.9282L117.125 34.7553L117.271 34.6247L117.45 34.4787L117.5 34.4406L117.562 34.4075L117.668 34.3897L117.781 34.3714L117.854 34.3546L118.058 34.1863L118.152 34.0941L118.197 34.0046L118.227 33.9202L118.273 33.8332L118.312 33.6191L118.711 33.403L118.859 33.3246L119.026 33.1934L119.07 33.1192L119.188 32.9244L119.318 32.7586L119.369 32.7225L119.432 32.697L119.522 32.6746L119.627 32.6594L119.69 32.6223L119.745 32.5668L120.046 32.2865L120.063 31.9092L120.073 31.5994L119.928 31.279L119.864 31.0908L119.761 30.9683L119.628 30.8452L119.537 30.7496L119.426 30.7053L119.297 30.683L119.209 30.6926L118.825 30.448L118.995 30.2505L119.028 30.1615L119.047 30.0538L119.043 29.9581L119.002 29.8631L118.954 29.7928L119.065 29.7516L119.146 29.6947L119.412 29.4083L119.485 29.3641L119.64 29.3254L119.891 29.2715L120.12 29.2389L120.338 29.2282L120.55 29.19L120.781 29.1666L120.985 29.1158L121.213 29.0842L121.462 29.0288L121.702 28.9652L121.963 28.9062L122.125 28.8585L122.21 28.8234L122.358 28.8077L122.761 28.8345L122.929 28.8391L123.217 28.8423L123.438 28.8677V29.1098L123.637 29.2969L123.785 29.4719L124.08 29.9581L124.3 30.3558L124.418 30.537L124.526 30.5909L124.669 30.6224L124.839 30.6865L125.012 30.7465L125.171 30.8228L125.325 30.9118L126.338 31.4769L126.421 31.5532L127.154 31.4341L127.144 31.2307L127.139 31.0954L127.11 30.9469L127.051 30.7984L127.061 30.6799L127.076 30.5614L127.144 30.447L127.194 30.3834L127.471 30.2252L127.637 30.0823L127.748 29.9424L127.95 29.6754L128.002 29.5325L128.036 29.3351L128.021 29.1606L128.013 29.0239L128.046 28.8678L128.087 28.7061L128.398 28.5225L128.61 28.3745L128.766 28.2768L128.89 28.3236L129.002 28.3531L129.037 28.4548L129.061 28.5987V28.7091L129.293 28.8785L131.038 28.8449L131.913 28.8022L132.105 28.7895L132.375 28.7513L132.645 28.6796L133.088 28.6328L133.757 28.408L134.189 28.2641L134.568 28.1537L134.735 28.1029L135.128 28.0902L135.497 28.0647L135.654 27.9803L135.87 27.8613L136.146 27.6706L136.46 27.3868L136.716 27.1365L136.775 27.0562L136.789 26.5476L136.829 26.2002L136.898 25.598L136.976 25.1657L137.065 24.9033L137.129 24.738L137.153 24.2208L137.178 24.085L137.345 23.6801L137.419 23.4645L137.463 23.197L137.485 22.9015L137.493 22.6695L137.459 22.4503L137.422 22.1578L137.035 21.843L136.947 21.7098H137.573L138.02 21.7002L138.458 21.6905L138.926 21.6493L139.326 21.6142L139.62 21.592L139.693 21.5696L139.793 21.5187L139.907 21.4424L140.032 21.3122L140.386 20.8738L140.527 20.705L140.67 20.5778L140.873 20.4415L141.032 20.2635L141.135 20.1364L141.253 19.9553L141.308 19.8912L141.702 19.8724L142.33 19.2336L142.249 18.9503L142.204 18.8232L142.197 18.7057L142.23 18.5247L142.488 18.3975L142.898 18.337L143 18.0735L143.067 17.9494L142.997 17.7618L142.957 17.625L142.975 17.4693L142.974 16.9012L142.993 16.1216L143.318 15.6933L143.485 15.348L143.554 15.2442L143.726 15.1212L143.9 15.0174L144.765 14.5642L145.11 14.4412L145.272 14.3776L145.798 14.3435L146.137 14.2799L146.417 13.9834L145.926 13.6335L146.206 13.4301L146.304 13.3879L146.43 13.3558L146.636 13.3157L146.808 13.246L146.838 13.1677ZM103.265 52.0636C102.774 51.0708 101.759 50.3894 100.587 50.3894C99.2867 50.3894 98.1692 51.2571 97.7746 52.4606L98.0458 52.4309L98.4688 52.4645L98.6015 52.4731L98.7342 52.4945L98.8422 52.5408L99.0687 52.6171L99.2699 52.6638L99.8551 52.6598L100.287 52.6511L100.72 52.6552L101.399 52.5453L101.694 52.4986L101.777 52.5708L101.959 52.7147L102.038 52.8037L102.141 52.8459L102.299 52.8841L102.593 53.0239L102.942 52.8251L103.06 52.7274L103.104 52.6297L103.114 52.5326L103.065 52.2442L103.265 52.0636ZM94.6016 52.7989V45.1134C94.6301 43.4413 93.2906 42.0862 91.6375 42.0862C90.013 42.0862 88.6735 43.4413 88.6735 45.1134V62.527C88.6735 63.1646 88.864 63.756 89.1914 64.2438L89.7168 64.2503L90.023 64.2853L90.2442 64.298L90.5468 64.2949L90.9491 64.3489L91.2256 64.3967L91.5283 64.4221L91.8344 64.4887L92.0449 64.5269L92.3104 64.5809L92.4284 64.6159L92.6613 64.5874L92.8159 64.562L93.0448 64.5587L93.1775 64.5521L93.3327 64.5013L93.558 64.4154L93.6613 64.4694L93.8419 64.5299L93.8774 64.5348C94.3458 64.0005 94.6301 63.2975 94.6301 62.527H94.6016V54.7037L94.5947 54.6941L94.4278 54.3971L94.4379 54.3294L94.4573 54.215L94.4619 54.0283V53.8885L94.3935 53.7827L94.2461 53.6642L94.0637 53.5665L93.9706 53.503L93.9069 53.4562L93.8573 53.4053L93.8674 53.2232L93.8721 53.0412L93.9069 52.9435L93.9659 52.8504L94.0343 52.795L94.1228 52.7655L94.2951 52.7742L94.4821 52.795L94.6016 52.7989ZM85.6808 64.5927V36.4066C85.7093 34.7344 84.3698 33.4082 82.7168 33.4082C81.0637 33.4082 79.7242 34.7633 79.7242 36.4354V65.1546L79.8928 65.1346L80.2178 65.1025L80.3543 65.0643L80.4763 64.9977L80.7234 64.8674L80.941 64.7275L81.0442 64.6732L81.1663 64.6192L81.5019 64.3872L81.7083 64.432L81.8005 64.4441L81.9373 64.4537L82.0442 64.4664L82.2548 64.5046L82.4353 64.5269L82.6423 64.5809L82.9668 64.673L83.6903 64.7207L84.1852 64.7528L84.6907 64.7178L85.1515 64.6669L85.5172 64.6192L85.6808 64.5927ZM75.8871 64.6643C76.4266 64.1168 76.7602 63.3614 76.7602 62.527V57.424C76.7602 55.7518 75.4206 54.3968 73.7676 54.3968C72.1146 54.3968 70.775 55.7518 70.775 57.424V62.527C70.7875 63.2557 71.0434 63.9241 71.4651 64.4465L71.7599 64.4668L72.5462 64.4576L73.0623 64.448L73.5869 64.4735L73.9261 64.4795L74.3025 64.5049L74.4906 64.5431L74.6457 64.5208L74.8486 64.5049L75.3394 64.4891L75.8871 64.6643ZM58.8902 28.9507V30.035C58.8332 31.5919 57.5222 32.8316 55.8977 32.8316C54.3016 32.8316 52.9906 31.6207 52.9336 30.0638V29.9459L53.991 30.2272L54.5809 30.1427L56.825 29.4475L57.258 29.2608L58.045 29.3458L58.6356 29.0574L58.8902 28.9507ZM62.3982 27.3345L61.8831 27.498L61.3716 27.7691H60.7415L60.5055 26.9554L58.9311 28.0743L59.3641 28.7522L58.8902 28.9507V28.4782C58.8902 25.1915 61.1988 21.1264 64.0489 19.483L77.5582 11.5835C80.4082 9.94015 85.0538 9.94015 87.8754 11.5835L89.272 12.3907L89.671 12.6214C90.07 12.8232 90.4975 12.9385 90.982 12.9385C91.2684 12.9385 91.5455 12.8978 91.8078 12.8219L91.8004 12.8292L91.4015 13.1725L91.0918 13.376L90.811 13.7956L90.5751 14.0244L90.3538 14.1643L90.1024 14.355L89.8369 14.5203L89.7042 14.7746L89.4676 14.9526L89.1726 15.0416H88.8328L88.3461 15.1688L88.1285 15.2194L87.8754 15.072C85.0253 13.4287 80.4082 13.4287 77.5582 15.072L75.1641 16.4847C74.3376 17.0325 73.7961 17.9551 73.7961 19.0218C73.7961 20.694 75.1356 22.049 76.7886 22.049C76.8842 22.049 76.9798 22.0445 77.0748 22.0355L77.031 22.0536H76.0198L75.8351 22.1365L75.7101 22.2316H74.6765L74.4258 22.3018L73.6576 22.378H73.0081L72.5804 22.4543L72.5616 22.4599C72.227 21.1322 71.045 20.1462 69.6349 20.1462C69.1504 20.1462 68.6659 20.2615 68.2669 20.4921L67.0414 21.2129C64.9985 22.3908 63.2339 24.8277 62.3982 27.3345ZM62.3982 27.3345L62.6311 27.2605L63.6547 27.023L64.1661 26.7179L64.7962 26.4468L66.6609 25.188L66.9853 24.2853L66.6609 23.8403L66.7346 23.4715L66.9411 23.3952L67.2072 23.2427L67.4874 23.1282H67.9599L68.5357 23.2427L68.9487 23.3952L69.3475 23.2935L69.6867 23.0774H70.5286L70.794 23.0138L70.9415 22.9502L71.2223 22.8104L71.5763 22.6705L72.1963 22.5688L72.5616 22.4599C72.6193 22.6887 72.6518 22.9276 72.656 23.1734C72.656 24.2113 72.143 25.1339 71.345 25.6816C71.231 25.7393 70.4329 26.2006 70.4329 26.2006C69.0079 27.0367 67.8394 29.0836 67.8394 30.727V57.3087C67.8394 58.9808 66.5284 60.3359 64.8753 60.3359C63.2223 60.3359 61.8827 58.9808 61.8827 57.3087V30.2657C61.8827 29.3266 62.0679 28.3251 62.3982 27.3345ZM77.0748 22.0355C77.461 21.999 77.8364 21.8882 78.1567 21.703L80.1802 20.521C81.6053 19.6849 83.9138 19.6849 85.3389 20.521L95.0861 26.2006C96.5111 27.0367 97.6511 29.0548 97.6511 30.727V39.4338V45.0557C97.6511 46.7279 98.9907 48.0829 100.644 48.0829C101.812 48.0829 102.81 47.4198 103.294 46.4396C103.494 46.036 103.636 45.5747 103.636 45.0846V30.2657C103.579 26.9502 101.242 22.8851 98.4207 21.2129L88.1285 15.2194L87.7998 15.2959L87.1503 15.5629L85.748 16.3767L85.4672 16.631L85.0837 17.0378H84.7438L84.493 17.1268H84.3302L84.1237 17.2921L84.05 17.4829L83.9763 17.6609L83.3562 18.0972L83.0217 18.3434L82.4707 18.674L82.0377 18.8855L81.9492 18.9959L81.7421 19.2161L81.1911 19.8692L81.0437 19.9536L80.8171 20.0044H80.6679L80.0301 20.454L79.8229 20.6321L79.6265 20.7673L79.3215 20.8777L78.1601 21.4687L77.5401 21.844L77.0748 22.0355ZM91.8078 12.8219L92.0806 12.5495L92.4204 12.1045L93.6009 10.4134L93.7784 10.032L93.8522 9.65053L93.8374 9.39624L93.6156 9.18009L93.4091 8.8495L93.2174 8.42991V8.21376L93.3734 8.12974C93.7368 8.62896 93.9575 9.23924 93.9746 9.91132C93.9746 11.2937 93.0591 12.4594 91.8078 12.8219ZM85.3103 24.0095L92.065 27.9304C93.4615 28.7665 94.63 30.8135 94.6585 32.4568V36.8102C94.63 38.4536 93.319 39.8086 91.666 39.8086C90.0414 39.8086 88.7019 38.4536 88.7019 36.7814V34.4461C88.7019 33.6389 88.1319 32.601 87.4194 32.1974L84.0278 30.2369C83.3153 29.8333 82.1467 29.8333 81.4342 30.2369L78.0711 32.1974C77.3586 32.601 76.7886 33.61 76.7886 34.4461V49.2073C76.7886 50.8795 75.4491 52.2345 73.796 52.2345C72.143 52.2345 70.8035 50.8795 70.8035 49.2073V32.4568C70.8035 30.7847 71.972 28.7665 73.397 27.9304L80.1517 24.0095C81.5767 23.1734 83.8853 23.1734 85.3103 24.0095ZM106.059 15.245C109.593 17.3208 112.5 22.3949 112.5 26.5465V41.5096C112.5 43.1817 111.16 44.5368 109.507 44.5368C107.883 44.5368 106.543 43.1817 106.543 41.5096V28.507C106.543 25.1915 104.235 21.0976 101.385 19.4542L96.5396 16.6288C95.6846 16.1099 95.1146 15.1585 95.1146 14.0629C95.1146 12.3908 96.4541 11.0357 98.1071 11.0357C98.5632 11.0357 99.0192 11.151 99.4182 11.3529L106.059 15.245ZM58.8902 47.1604C58.8902 48.8326 57.5507 50.1588 55.8977 50.1876C54.2731 50.1588 52.9336 48.8037 52.9336 47.1604V38.3382C52.9336 36.6661 54.2731 35.311 55.8977 35.311C57.5507 35.311 58.8902 36.6661 58.8902 38.3382V47.1604Z" fill="url(#paint0_linear_446_591)"/>
<defs>
<linearGradient id="paint0_linear_446_591" x1="78" y1="-14.8139" x2="75.1713" y2="69.2154" gradientUnits="userSpaceOnUse">
<stop stop-color="#140C47"/>
<stop offset="1" stop-color="#999999" stop-opacity="0"/>
</linearGradient>
</defs>
</svg>
